# xmcd
#
# Track frame offsets: 
#        182
#        17582
#        32285
#        49507
#        64362
#        80520
#        98675
#        114472
#        126812
#        140875
#
# Disc length: 2031 seconds
#
# Revision: 4
# Processed by: cddbd v1.5.2PL0 Copyright (c) Steve Scherf et al.
# Submitted via: ExactAudioCopy v0.99pb4
#
DISCID=7e07ed0a
DTITLE=Various Artist - Rock The First Vol. 7
DYEAR=1993
DGENRE=Country
TTITLE0=Dan Seals - Love On Arrival
TTITLE1=Tanya Tucker With T. Graham Brown - Don't Go Out
TTITLE2=Suzy Bogguss - Aces
TTITLE3=Diamond Rio - Meet In The Middle
TTITLE4=Lonnie Morgan - Five Minutes
TTITLE5=Pirates Of The Mississippi - Feed Jake
TTITLE6=Billy Dean - Only Here For A Little While
TTITLE7=Tanya Tucker - Strong Enough To Bend
TTITLE8=Alan Jackson - Chasin' That Neon Rainbow
TTITLE9=Chris LeDoux With Garth Brooks - Whatcha Gonna Do With A Cowbo
TTITLE9=y
EXTD=
EXTT0=
EXTT1=
EXTT2=
EXTT3=
EXTT4=
EXTT5=
EXTT6=
EXTT7=
EXTT8=
EXTT9=
PLAYORDER=
